<?xml version="1.0" encoding="UTF-8"?><svg id="Layer_1" xmlns="http://www.w3.org/2000/svg" viewBox="0 0 1380 535.9"><defs><style>.cls-1{fill:#ffc500;}</style></defs><polygon points="544.6 190 544.6 190.4 544.5 190.2 485.9 248.8 427.3 190.2 427.3 190.3 427.3 190 389.8 190 389.6 190 389.6 347.3 427.3 347.3 427.3 234.9 476.9 284.6 476.9 284.6 485.9 293.5 544.6 234.8 544.6 347.3 582.3 347.3 582.3 190 544.8 190 544.6 190"/><path d="M140.7,315.6l11.3,31.6h40l-56.1-157.1H56.1L0,347.2H40l11.3-31.6h89.4Zm-44.7-125.1l33.4,93.4H62.6l33.4-93.4Z"/><path d="M697.9,190.1h-40l-56.1,157.1h40l11.3-31.6h89.3l11.3,31.6h40l-56.1-157.1h-39.7Zm-33.5,93.8l33.4-93.4,33.4,93.4h-66.8Z"/><path d="M1076.4,190.1h-40l-56.1,157.1h40l11.3-31.6h89.3l11.3,31.6h40l-56.1-157.1h-39.7Zm-33.5,93.8l33.4-93.4,33.4,93.4h-66.8Z"/><polygon points="960.3 189.7 915.6 189.7 849.4 255.9 849.4 190 811.9 190 811.7 190 811.7 347.3 849.4 347.3 849.4 279.4 917.3 347.3 962.1 347.3 882.4 267.6 960.3 189.7"/><polygon points="1342.5 190 1342.3 190 1342.3 302.6 1229.7 190 1229.7 190 1229.7 190 1229.7 190 1229.7 190 1192.2 190 1192 190 1192 347.3 1229.7 347.3 1229.7 234.7 1342.3 347.3 1342.3 347.3 1380 347.3 1380 190 1342.5 190"/><polygon points="275.8 282.2 216.3 189.7 176.3 189.7 236.7 283.7 274.9 283.7 238.4 346.5 278.9 346.5 369.7 190.1 329.3 190.1 275.8 282.2"/><polygon class="cls-1" points="477.4 0 437 0 360.9 133.4 400.9 133.4 477.4 0"/><polygon class="cls-1" points="128.6 535.9 168.6 535.9 245.1 402.5 204.7 402.5 128.6 535.9"/></svg>